# MagicaVoxel @ Ephtracy

# group
o 

# material
mtllib untitled.mtl
usemtl palette

# normals
vn -1 0 0
vn 1 0 0
vn 0 0 1
vn 0 0 -1
vn 0 -1 0
vn 0 1 0

# texcoords
vt 0.939453 0.5
vt 0.943359 0.5
vt 0.947266 0.5
vt 0.951172 0.5

# verts
v -1.9 0 -0.1
v -1.9 0 -1.8
v -1.9 1.1 -0.1
v -1.9 1.1 -1.8
v -1.8 0 2.23517e-08
v -1.8 0 -0.1
v -1.8 1.1 2.23517e-08
v -1.8 1.1 -0.1
v -1.5 1.1 -0.2
v -1.5 1.1 -1.1
v -1.5 1.1 -1.3
v -1.5 1.2 -0.2
v -1.5 1.2 -1.1
v -1.5 1.2 -1.3
v -1.2 0.3 2.23517e-08
v -1.2 0.3 -0.1
v -1.2 0.5 2.23517e-08
v -1.2 0.5 -0.1
v -1.2 0.6 2.23517e-08
v -1.2 0.6 -0.1
v -1.2 0.9 2.23517e-08
v -1.2 0.9 -0.1
v -1.2 1.1 -1.3
v -1.2 1.1 -1.7
v -1.2 1.2 -0.7
v -1.2 1.2 -1.1
v -1.2 1.2 -1.3
v -1.2 1.2 -1.7
v -1.2 2.1 -0.7
v -1.2 2.1 -1.7
v -0.7 0.3 2.23517e-08
v -0.7 0.3 -0.1
v -0.7 0.5 2.23517e-08
v -0.7 0.5 -0.1
v -0.7 0.6 2.23517e-08
v -0.7 0.6 -0.1
v -0.7 0.9 2.23517e-08
v -0.7 0.9 -0.1
v -0.4 1.1 -1.3
v -0.4 1.1 -1.7
v -0.4 1.2 -0.7
v -0.4 1.2 -1.1
v -0.4 1.2 -1.3
v -0.4 1.2 -1.7
v -0.4 2.4 -0.7
v -0.4 2.4 -1.7
v 0.2 0 2.23517e-08
v 0.2 0 -0.1
v 0.2 0.9 2.23517e-08
v 0.2 0.9 -0.1
v -1.5 0.3 2.23517e-08
v -1.5 0.3 -0.1
v -1.5 0.5 2.23517e-08
v -1.5 0.5 -0.1
v -1.5 0.6 2.23517e-08
v -1.5 0.6 -0.1
v -1.5 0.9 2.23517e-08
v -1.5 0.9 -0.1
v -1 0.3 2.23517e-08
v -1 0.3 -0.1
v -1 0.5 2.23517e-08
v -1 0.5 -0.1
v -1 0.6 2.23517e-08
v -1 0.6 -0.1
v -1 0.9 2.23517e-08
v -1 0.9 -0.1
v -0.5 1.1 -1.3
v -0.5 1.1 -1.7
v -0.5 1.2 -0.7
v -0.5 1.2 -1.1
v -0.5 1.2 -1.3
v -0.5 1.2 -1.7
v -0.5 2.1 -0.7
v -0.5 2.1 -1.7
v -0.4 0 2.23517e-08
v -0.4 0 -0.1
v -0.4 0.9 2.23517e-08
v -0.4 0.9 -0.1
v 0.3 1.1 -0.2
v 0.3 1.1 -0.7
v 0.3 1.2 -0.2
v 0.3 1.2 -0.7
v 0.4 0 2.23517e-08
v 0.4 0 -0.1
v 0.4 1.1 2.23517e-08
v 0.4 1.1 -0.1
v 0.4 1.1 -0.7
v 0.4 1.1 -1.7
v 0.4 1.2 -0.7
v 0.4 1.2 -1.7
v 0.4 2.4 -0.7
v 0.4 2.4 -1.7
v 0.5 0 -0.1
v 0.5 0 -1.8
v 0.5 0.1 -0.3
v 0.5 0.1 -1.6
v 0.5 1 -0.3
v 0.5 1 -1.6
v 0.5 1.1 -0.1
v 0.5 1.1 -1.8
v 0.6 0.1 -0.3
v 0.6 0.1 -1.6
v 0.6 1 -0.3
v 0.6 1 -1.6
v -1.8 0 2.23517e-08
v -1.8 1.1 2.23517e-08
v -1.5 0.3 2.23517e-08
v -1.5 0.5 2.23517e-08
v -1.5 0.6 2.23517e-08
v -1.5 0.9 2.23517e-08
v -1.2 0.3 2.23517e-08
v -1.2 0.5 2.23517e-08
v -1.2 0.6 2.23517e-08
v -1.2 0.9 2.23517e-08
v -1 0.3 2.23517e-08
v -1 0.5 2.23517e-08
v -1 0.6 2.23517e-08
v -1 0.9 2.23517e-08
v -0.7 0.3 2.23517e-08
v -0.7 0.5 2.23517e-08
v -0.7 0.6 2.23517e-08
v -0.7 0.9 2.23517e-08
v -0.4 0 2.23517e-08
v -0.4 0.9 2.23517e-08
v 0.2 0 2.23517e-08
v 0.2 0.9 2.23517e-08
v 0.4 0 2.23517e-08
v 0.4 1.1 2.23517e-08
v -1.9 0 -0.1
v -1.9 1.1 -0.1
v -1.8 0 -0.1
v -1.8 1.1 -0.1
v -1.5 0.3 -0.1
v -1.5 0.5 -0.1
v -1.5 0.6 -0.1
v -1.5 0.9 -0.1
v -1.2 0.3 -0.1
v -1.2 0.5 -0.1
v -1.2 0.6 -0.1
v -1.2 0.9 -0.1
v -1 0.3 -0.1
v -1 0.5 -0.1
v -1 0.6 -0.1
v -1 0.9 -0.1
v -0.7 0.3 -0.1
v -0.7 0.5 -0.1
v -0.7 0.6 -0.1
v -0.7 0.9 -0.1
v -0.4 0 -0.1
v -0.4 0.9 -0.1
v 0.2 0 -0.1
v 0.2 0.9 -0.1
v 0.4 0 -0.1
v 0.4 1.1 -0.1
v 0.5 0 -0.1
v 0.5 1.1 -0.1
v -1.5 1.1 -0.2
v -1.5 1.2 -0.2
v 0.3 1.1 -0.2
v 0.3 1.2 -0.2
v 0.5 0.1 -0.3
v 0.5 1 -0.3
v 0.6 0.1 -0.3
v 0.6 1 -0.3
v -1.2 1.2 -0.7
v -1.2 2.1 -0.7
v -0.5 1.2 -0.7
v -0.5 2.1 -0.7
v -0.4 1.2 -0.7
v -0.4 2.4 -0.7
v 0.3 1.1 -0.7
v 0.3 1.2 -0.7
v 0.4 1.1 -0.7
v 0.4 1.2 -0.7
v 0.4 2.4 -0.7
v -1.5 1.1 -1.3
v -1.5 1.2 -1.3
v -1.2 1.1 -1.3
v -1.2 1.2 -1.3
v -0.5 1.1 -1.3
v -0.5 1.2 -1.3
v -0.4 1.1 -1.3
v -0.4 1.2 -1.3
v 0.5 0.1 -1.6
v 0.5 1 -1.6
v 0.6 0.1 -1.6
v 0.6 1 -1.6
v -1.2 1.1 -1.7
v -1.2 1.2 -1.7
v -1.2 2.1 -1.7
v -0.5 1.1 -1.7
v -0.5 1.2 -1.7
v -0.5 2.1 -1.7
v -0.4 1.1 -1.7
v -0.4 1.2 -1.7
v -0.4 2.4 -1.7
v 0.4 1.1 -1.7
v 0.4 1.2 -1.7
v 0.4 2.4 -1.7
v -1.9 0 -1.8
v -1.9 1.1 -1.8
v 0.5 0 -1.8
v 0.5 1.1 -1.8
v -1.8 0 2.23517e-08
v -0.4 0 2.23517e-08
v 0.2 0 2.23517e-08
v 0.4 0 2.23517e-08
v -1.9 0 -0.1
v -1.8 0 -0.1
v -0.4 0 -0.1
v 0.2 0 -0.1
v 0.4 0 -0.1
v 0.5 0 -0.1
v -0.4 0 -0.2
v 0.2 0 -0.2
v -1.9 0 -1.8
v 0.5 0 -1.8
v 0.5 0.1 -0.3
v 0.6 0.1 -0.3
v 0.5 0.1 -1.6
v 0.6 0.1 -1.6
v -1.5 0.5 2.23517e-08
v -1.2 0.5 2.23517e-08
v -1 0.5 2.23517e-08
v -0.7 0.5 2.23517e-08
v -1.5 0.5 -0.1
v -1.2 0.5 -0.1
v -1 0.5 -0.1
v -0.7 0.5 -0.1
v -1.5 0.9 2.23517e-08
v -1.2 0.9 2.23517e-08
v -1 0.9 2.23517e-08
v -0.7 0.9 2.23517e-08
v -0.4 0.9 2.23517e-08
v 0.2 0.9 2.23517e-08
v -1.5 0.9 -0.1
v -1.2 0.9 -0.1
v -1 0.9 -0.1
v -0.7 0.9 -0.1
v -0.4 0.9 -0.1
v 0.2 0.9 -0.1
v -1.5 0.3 2.23517e-08
v -1.2 0.3 2.23517e-08
v -1 0.3 2.23517e-08
v -0.7 0.3 2.23517e-08
v -1.5 0.3 -0.1
v -1.2 0.3 -0.1
v -1 0.3 -0.1
v -0.7 0.3 -0.1
v -1.5 0.6 2.23517e-08
v -1.2 0.6 2.23517e-08
v -1 0.6 2.23517e-08
v -0.7 0.6 2.23517e-08
v -1.5 0.6 -0.1
v -1.2 0.6 -0.1
v -1 0.6 -0.1
v -0.7 0.6 -0.1
v 0.5 1 -0.3
v 0.6 1 -0.3
v 0.5 1 -1.6
v 0.6 1 -1.6
v -1.8 1.1 2.23517e-08
v 0.4 1.1 2.23517e-08
v -1.9 1.1 -0.1
v -1.8 1.1 -0.1
v 0.4 1.1 -0.1
v 0.5 1.1 -0.1
v -1.5 1.1 -0.2
v 0.3 1.1 -0.2
v 0.3 1.1 -0.7
v 0.4 1.1 -0.7
v -1.5 1.1 -1.1
v -1.5 1.1 -1.3
v -1.2 1.1 -1.3
v -0.5 1.1 -1.3
v -0.4 1.1 -1.3
v -1.2 1.1 -1.7
v -0.5 1.1 -1.7
v -0.4 1.1 -1.7
v 0.4 1.1 -1.7
v -1.9 1.1 -1.8
v 0.5 1.1 -1.8
v -1.5 1.2 -0.2
v 0.3 1.2 -0.2
v -1.2 1.2 -0.7
v -0.5 1.2 -0.7
v -0.4 1.2 -0.7
v 0.3 1.2 -0.7
v -1.5 1.2 -1.1
v -1.2 1.2 -1.1
v -0.5 1.2 -1.1
v -0.4 1.2 -1.1
v -1.5 1.2 -1.3
v -1.2 1.2 -1.3
v -0.5 1.2 -1.3
v -0.4 1.2 -1.3
v -1.2 2.1 -0.7
v -0.5 2.1 -0.7
v -1.2 2.1 -1.7
v -0.5 2.1 -1.7
v -0.4 2.4 -0.7
v 0.4 2.4 -0.7
v -0.4 2.4 -1.7
v 0.4 2.4 -1.7

# faces
f 3/1/1 2/1/1 1/1/1
f 4/1/1 2/1/1 3/1/1
f 7/1/1 6/1/1 5/1/1
f 8/1/1 6/1/1 7/1/1
f 12/2/1 10/2/1 9/2/1
f 13/1/1 11/1/1 10/1/1
f 13/2/1 10/2/1 12/2/1
f 14/1/1 11/1/1 13/1/1
f 17/1/1 16/1/1 15/1/1
f 18/1/1 16/1/1 17/1/1
f 21/1/1 20/1/1 19/1/1
f 22/1/1 20/1/1 21/1/1
f 27/1/1 24/1/1 23/1/1
f 28/1/1 24/1/1 27/1/1
f 29/2/1 26/2/1 25/2/1
f 29/2/1 27/2/1 26/2/1
f 29/2/1 28/2/1 27/2/1
f 30/2/1 28/2/1 29/2/1
f 33/1/1 32/1/1 31/1/1
f 34/1/1 32/1/1 33/1/1
f 37/1/1 36/1/1 35/1/1
f 38/1/1 36/1/1 37/1/1
f 43/1/1 40/1/1 39/1/1
f 44/1/1 40/1/1 43/1/1
f 45/2/1 42/2/1 41/2/1
f 45/2/1 43/2/1 42/2/1
f 45/2/1 44/2/1 43/2/1
f 46/2/1 44/2/1 45/2/1
f 49/1/1 48/1/1 47/1/1
f 50/1/1 48/1/1 49/1/1
f 51/1/2 52/1/2 53/1/2
f 53/1/2 52/1/2 54/1/2
f 55/1/2 56/1/2 57/1/2
f 57/1/2 56/1/2 58/1/2
f 59/1/2 60/1/2 61/1/2
f 61/1/2 60/1/2 62/1/2
f 63/1/2 64/1/2 65/1/2
f 65/1/2 64/1/2 66/1/2
f 67/1/2 68/1/2 71/1/2
f 71/1/2 68/1/2 72/1/2
f 69/2/2 70/2/2 73/2/2
f 70/2/2 71/2/2 73/2/2
f 71/2/2 72/2/2 73/2/2
f 73/2/2 72/2/2 74/2/2
f 75/1/2 76/1/2 77/1/2
f 77/1/2 76/1/2 78/1/2
f 79/2/2 80/2/2 81/2/2
f 81/2/2 80/2/2 82/2/2
f 83/1/2 84/1/2 85/1/2
f 85/1/2 84/1/2 86/1/2
f 87/1/2 88/1/2 89/1/2
f 89/1/2 88/1/2 90/1/2
f 89/2/2 90/2/2 91/2/2
f 91/2/2 90/2/2 92/2/2
f 93/1/2 94/1/2 95/1/2
f 95/1/2 94/1/2 96/1/2
f 93/1/2 95/1/2 97/1/2
f 96/1/2 94/1/2 98/1/2
f 93/1/2 97/1/2 99/1/2
f 97/1/2 98/1/2 99/1/2
f 98/1/2 94/1/2 100/1/2
f 99/1/2 98/1/2 100/1/2
f 101/4/2 102/4/2 103/4/2
f 103/4/2 102/4/2 104/4/2
f 107/1/3 106/1/3 105/1/3
f 108/1/3 106/1/3 107/1/3
f 109/1/3 106/1/3 108/1/3
f 110/1/3 106/1/3 109/1/3
f 111/1/3 107/1/3 105/1/3
f 112/1/3 109/1/3 108/1/3
f 113/1/3 109/1/3 112/1/3
f 114/1/3 106/1/3 110/1/3
f 115/1/3 113/1/3 112/1/3
f 115/1/3 114/1/3 113/1/3
f 115/1/3 111/1/3 105/1/3
f 115/1/3 112/1/3 111/1/3
f 116/1/3 114/1/3 115/1/3
f 117/1/3 114/1/3 116/1/3
f 118/1/3 106/1/3 114/1/3
f 118/1/3 114/1/3 117/1/3
f 119/1/3 115/1/3 105/1/3
f 120/1/3 117/1/3 116/1/3
f 121/1/3 117/1/3 120/1/3
f 122/1/3 106/1/3 118/1/3
f 123/1/3 119/1/3 105/1/3
f 123/1/3 122/1/3 121/1/3
f 123/1/3 121/1/3 120/1/3
f 123/1/3 120/1/3 119/1/3
f 124/1/3 106/1/3 122/1/3
f 124/1/3 122/1/3 123/1/3
f 126/1/3 106/1/3 124/1/3
f 127/1/3 126/1/3 125/1/3
f 128/1/3 106/1/3 126/1/3
f 128/1/3 126/1/3 127/1/3
f 131/1/3 130/1/3 129/1/3
f 132/1/3 130/1/3 131/1/3
f 137/3/3 134/3/3 133/3/3
f 138/3/3 134/3/3 137/3/3
f 139/3/3 136/3/3 135/3/3
f 140/3/3 136/3/3 139/3/3
f 145/3/3 142/3/3 141/3/3
f 146/3/3 142/3/3 145/3/3
f 147/3/3 144/3/3 143/3/3
f 148/3/3 144/3/3 147/3/3
f 151/3/3 150/3/3 149/3/3
f 152/3/3 150/3/3 151/3/3
f 155/1/3 154/1/3 153/1/3
f 156/1/3 154/1/3 155/1/3
f 159/2/3 158/2/3 157/2/3
f 160/2/3 158/2/3 159/2/3
f 163/4/3 162/4/3 161/4/3
f 164/4/3 162/4/3 163/4/3
f 167/2/3 166/2/3 165/2/3
f 168/2/3 166/2/3 167/2/3
f 172/2/3 170/2/3 169/2/3
f 173/1/3 172/1/3 171/1/3
f 174/2/3 170/2/3 172/2/3
f 174/1/3 172/1/3 173/1/3
f 175/2/3 170/2/3 174/2/3
f 176/1/4 177/1/4 178/1/4
f 178/1/4 177/1/4 179/1/4
f 180/1/4 181/1/4 182/1/4
f 182/1/4 181/1/4 183/1/4
f 184/4/4 185/4/4 186/4/4
f 186/4/4 185/4/4 187/4/4
f 188/1/4 189/1/4 191/1/4
f 189/2/4 190/2/4 192/2/4
f 191/1/4 189/1/4 192/1/4
f 192/2/4 190/2/4 193/2/4
f 194/1/4 195/1/4 197/1/4
f 195/2/4 196/2/4 198/2/4
f 197/1/4 195/1/4 198/1/4
f 198/2/4 196/2/4 199/2/4
f 200/1/4 201/1/4 202/1/4
f 202/1/4 201/1/4 203/1/4
f 209/1/5 205/1/5 204/1/5
f 210/1/5 205/1/5 209/1/5
f 211/1/5 207/1/5 206/1/5
f 212/1/5 207/1/5 211/1/5
f 214/1/5 210/1/5 209/1/5
f 214/1/5 209/1/5 208/1/5
f 214/3/5 211/3/5 210/3/5
f 215/1/5 213/1/5 212/1/5
f 215/3/5 211/3/5 214/3/5
f 215/1/5 212/1/5 211/1/5
f 216/1/5 214/1/5 208/1/5
f 216/1/5 215/1/5 214/1/5
f 217/1/5 213/1/5 215/1/5
f 217/1/5 215/1/5 216/1/5
f 220/4/5 219/4/5 218/4/5
f 221/4/5 219/4/5 220/4/5
f 226/1/5 223/1/5 222/1/5
f 227/1/5 223/1/5 226/1/5
f 228/1/5 225/1/5 224/1/5
f 229/1/5 225/1/5 228/1/5
f 236/1/5 231/1/5 230/1/5
f 237/1/5 231/1/5 236/1/5
f 238/1/5 233/1/5 232/1/5
f 239/1/5 233/1/5 238/1/5
f 240/1/5 235/1/5 234/1/5
f 241/1/5 235/1/5 240/1/5
f 242/1/6 243/1/6 246/1/6
f 246/1/6 243/1/6 247/1/6
f 244/1/6 245/1/6 248/1/6
f 248/1/6 245/1/6 249/1/6
f 250/1/6 251/1/6 254/1/6
f 254/1/6 251/1/6 255/1/6
f 252/1/6 253/1/6 256/1/6
f 256/1/6 253/1/6 257/1/6
f 258/4/6 259/4/6 260/4/6
f 260/4/6 259/4/6 261/4/6
f 262/1/6 263/1/6 265/1/6
f 265/1/6 263/1/6 266/1/6
f 264/1/6 265/1/6 268/1/6
f 266/1/6 267/1/6 268/1/6
f 265/1/6 266/1/6 268/1/6
f 268/1/6 267/1/6 269/1/6
f 269/1/6 267/1/6 270/1/6
f 270/1/6 267/1/6 271/1/6
f 264/1/6 268/1/6 272/1/6
f 264/1/6 272/1/6 273/1/6
f 273/1/6 274/1/6 277/1/6
f 275/1/6 276/1/6 278/1/6
f 278/1/6 276/1/6 279/1/6
f 271/1/6 267/1/6 280/1/6
f 278/1/6 279/1/6 281/1/6
f 279/1/6 280/1/6 281/1/6
f 264/1/6 273/1/6 281/1/6
f 273/1/6 277/1/6 281/1/6
f 277/1/6 278/1/6 281/1/6
f 280/1/6 267/1/6 282/1/6
f 281/1/6 280/1/6 282/1/6
f 283/2/6 284/2/6 285/2/6
f 285/2/6 284/2/6 286/2/6
f 286/2/6 284/2/6 287/2/6
f 287/2/6 284/2/6 288/2/6
f 283/2/6 285/2/6 289/2/6
f 289/2/6 285/2/6 290/2/6
f 286/2/6 287/2/6 291/2/6
f 291/2/6 287/2/6 292/2/6
f 289/1/6 290/1/6 293/1/6
f 293/1/6 290/1/6 294/1/6
f 291/1/6 292/1/6 295/1/6
f 295/1/6 292/1/6 296/1/6
f 297/2/6 298/2/6 299/2/6
f 299/2/6 298/2/6 300/2/6
f 301/2/6 302/2/6 303/2/6
f 303/2/6 302/2/6 304/2/6
